<svg width="50" height="50" viewBox="0 0 50 50" fill="none" xmlns="http://www.w3.org/2000/svg">
<g clip-path="url(#clip0_425_311)">
<path d="M42.9281 38.8416C42.0808 38.8422 41.2523 38.5915 40.5475 38.1212C39.8427 37.6509 39.2932 36.9822 38.9686 36.1996C38.6439 35.4169 38.5586 34.5556 38.7235 33.7245C38.8884 32.8934 39.2961 32.1299 39.8951 31.5306C40.494 30.9312 41.2572 30.523 42.0882 30.3574C42.9191 30.1919 43.7805 30.2766 44.5634 30.6007C45.3462 30.9248 46.0154 31.4738 46.4862 32.1782C46.957 32.8827 47.2083 33.7109 47.2083 34.5582C47.2077 35.6935 46.7567 36.7822 45.9542 37.5853C45.1517 38.3884 44.0634 38.8402 42.9281 38.8416ZM42.9281 31.8374C42.3898 31.8368 41.8634 31.9958 41.4156 32.2944C40.9677 32.593 40.6185 33.0177 40.4121 33.5149C40.2057 34.012 40.1514 34.5591 40.256 35.0871C40.3606 35.6151 40.6195 36.1002 40.9999 36.481C41.3803 36.8619 41.8651 37.1213 42.393 37.2266C42.9209 37.3318 43.4681 37.2781 43.9654 37.0723C44.4628 36.8664 44.8879 36.5177 45.187 36.0702C45.4861 35.6227 45.6458 35.0965 45.6458 34.5582C45.6455 33.8373 45.3592 33.1458 44.8497 32.6357C44.3401 32.1256 43.649 31.8385 42.9281 31.8374Z" fill="black"/>
<path d="M20.3563 38.8416C19.509 38.8424 18.6805 38.5919 17.9755 38.1217C17.2706 37.6516 16.7209 36.9829 16.3961 36.2003C16.0713 35.4177 15.9858 34.5563 16.1506 33.7252C16.3154 32.894 16.7231 32.1304 17.3219 31.5309C17.9208 30.9315 18.684 30.5231 19.515 30.3575C20.346 30.1919 21.2075 30.2765 21.9904 30.6006C22.7733 30.9246 23.4425 31.4736 23.9134 32.1781C24.3842 32.8826 24.6355 33.7109 24.6355 34.5582C24.6347 35.6933 24.1837 36.7816 23.3815 37.5846C22.5793 38.3876 21.4914 38.8396 20.3563 38.8416ZM20.3563 31.8374C19.818 31.8366 19.2916 31.9955 18.8436 32.2939C18.3956 32.5924 18.0462 33.017 17.8397 33.5141C17.6331 34.0112 17.5786 34.5584 17.6831 35.0865C17.7876 35.6145 18.0464 36.0997 18.4268 36.4807C18.8071 36.8616 19.2919 37.1212 19.8198 37.2265C20.3477 37.3318 20.895 37.2782 21.3924 37.0724C21.8898 36.8665 22.315 36.5178 22.6142 36.0703C22.9133 35.6228 23.073 35.0965 23.073 34.5582C23.0725 33.8375 22.7862 33.1464 22.277 32.6364C21.7677 32.1264 21.0771 31.8391 20.3563 31.8374Z" fill="black"/>
<path d="M48.5636 35.3398H46.4271C46.2199 35.3398 46.0212 35.2575 45.8747 35.111C45.7282 34.9645 45.6459 34.7658 45.6459 34.5586C45.6459 34.3514 45.7282 34.1526 45.8747 34.0061C46.0212 33.8596 46.2199 33.7773 46.4271 33.7773H48.3427V29.6346C48.3422 29.0745 48.1988 28.5238 47.9261 28.0346L43.6969 20.4523C43.6608 20.3876 43.608 20.3337 43.5441 20.2962C43.4802 20.2586 43.4075 20.2388 43.3334 20.2388H37.5698V33.7804H39.4302C39.6374 33.7804 39.8362 33.8627 39.9827 34.0093C40.1292 34.1558 40.2115 34.3545 40.2115 34.5617C40.2115 34.7689 40.1292 34.9676 39.9827 35.1141C39.8362 35.2606 39.6374 35.3429 39.4302 35.3429H36.7886C36.5814 35.3429 36.3827 35.2606 36.2361 35.1141C36.0896 34.9676 36.0073 34.7689 36.0073 34.5617V19.4575C36.0073 19.2503 36.0896 19.0516 36.2361 18.9051C36.3827 18.7586 36.5814 18.6763 36.7886 18.6763H43.3334C43.6858 18.6761 44.0319 18.77 44.3359 18.9484C44.6399 19.1268 44.8908 19.3831 45.0625 19.6909L49.2907 27.2742C49.6926 27.996 49.9038 28.8084 49.9042 29.6346V33.9992C49.9036 34.3546 49.7622 34.6952 49.5109 34.9465C49.2596 35.1978 48.919 35.3393 48.5636 35.3398Z" fill="black"/>
<path d="M16.8573 35.3394H9.3667C9.1595 35.3394 8.96079 35.2571 8.81427 35.1106C8.66776 34.9641 8.58545 34.7653 8.58545 34.5581V28.5498C8.58545 28.3426 8.66776 28.1439 8.81427 27.9974C8.96079 27.8509 9.1595 27.7686 9.3667 27.7686C9.5739 27.7686 9.77261 27.8509 9.91913 27.9974C10.0656 28.1439 10.1479 28.3426 10.1479 28.5498V33.7769H16.8573C17.0645 33.7769 17.2632 33.8592 17.4098 34.0057C17.5563 34.1522 17.6386 34.3509 17.6386 34.5581C17.6386 34.7653 17.5563 34.9641 17.4098 35.1106C17.2632 35.2571 17.0645 35.3394 16.8573 35.3394Z" fill="black"/>
<path d="M9.3667 25.7781C9.1595 25.7781 8.96079 25.6958 8.81427 25.5492C8.66776 25.4027 8.58545 25.204 8.58545 24.9968V19.751C8.58545 19.5438 8.66776 19.3451 8.81427 19.1985C8.96079 19.052 9.1595 18.9697 9.3667 18.9697C9.5739 18.9697 9.77261 19.052 9.91913 19.1985C10.0656 19.3451 10.1479 19.5438 10.1479 19.751V24.9999C10.1471 25.2066 10.0644 25.4045 9.91803 25.5503C9.7716 25.6962 9.57336 25.7781 9.3667 25.7781Z" fill="black"/>
<path d="M36.7886 35.3394H23.8542C23.647 35.3394 23.4483 35.2571 23.3018 35.1106C23.1553 34.9641 23.073 34.7654 23.073 34.5582C23.073 34.351 23.1553 34.1523 23.3018 34.0057C23.4483 33.8592 23.647 33.7769 23.8542 33.7769H36.0073V13.3384H10.1479V16.5561C10.1479 16.7633 10.0656 16.962 9.91913 17.1085C9.77261 17.255 9.5739 17.3373 9.3667 17.3373C9.1595 17.3373 8.96079 17.255 8.81427 17.1085C8.66776 16.962 8.58545 16.7633 8.58545 16.5561V13.1946C8.586 12.8183 8.7358 12.4576 9.00197 12.1917C9.26814 11.9257 9.62895 11.7762 10.0052 11.7759H36.1511C36.5272 11.7764 36.8877 11.9261 37.1537 12.192C37.4196 12.458 37.5693 12.8185 37.5698 13.1946V34.5582C37.5698 34.7654 37.4875 34.9641 37.341 35.1106C37.1945 35.2571 36.9958 35.3394 36.7886 35.3394Z" fill="black"/>
<path d="M12.4552 29.3311H2.53955C2.33235 29.3311 2.13364 29.2487 1.98712 29.1022C1.84061 28.9557 1.7583 28.757 1.7583 28.5498C1.7583 28.3426 1.84061 28.1439 1.98712 27.9974C2.13364 27.8509 2.33235 27.7686 2.53955 27.7686H12.4552C12.6624 27.7686 12.8611 27.8509 13.0076 27.9974C13.1541 28.1439 13.2364 28.3426 13.2364 28.5498C13.2364 28.757 13.1541 28.9557 13.0076 29.1022C12.8611 29.2487 12.6624 29.3311 12.4552 29.3311Z" fill="black"/>
<path d="M20.3565 25.7783H6.52002C6.31282 25.7783 6.11411 25.696 5.96759 25.5495C5.82108 25.403 5.73877 25.2043 5.73877 24.9971C5.73877 24.7899 5.82108 24.5912 5.96759 24.4446C6.11411 24.2981 6.31282 24.2158 6.52002 24.2158H20.3565C20.5637 24.2158 20.7624 24.2981 20.9089 24.4446C21.0554 24.5912 21.1377 24.7899 21.1377 24.9971C21.1377 25.2043 21.0554 25.403 20.9089 25.5495C20.7624 25.696 20.5637 25.7783 20.3565 25.7783Z" fill="black"/>
<path d="M6.08965 21.6533H0.686523C0.479323 21.6533 0.280609 21.571 0.134096 21.4245C-0.0124165 21.278 -0.0947266 21.0793 -0.0947266 20.8721C-0.0947266 20.6649 -0.0124165 20.4662 0.134096 20.3196C0.280609 20.1731 0.479323 20.0908 0.686523 20.0908H6.08965C6.29685 20.0908 6.49556 20.1731 6.64208 20.3196C6.78859 20.4662 6.8709 20.6649 6.8709 20.8721C6.8709 21.0793 6.78859 21.278 6.64208 21.4245C6.49556 21.571 6.29685 21.6533 6.08965 21.6533Z" fill="black"/>
<path d="M14.7533 17.3374H5.21582C5.00862 17.3374 4.80991 17.2551 4.66339 17.1086C4.51688 16.9621 4.43457 16.7634 4.43457 16.5562C4.43457 16.349 4.51688 16.1502 4.66339 16.0037C4.80991 15.8572 5.00862 15.7749 5.21582 15.7749H14.7533C14.9605 15.7749 15.1592 15.8572 15.3057 16.0037C15.4523 16.1502 15.5346 16.349 15.5346 16.5562C15.5346 16.7634 15.4523 16.9621 15.3057 17.1086C15.1592 17.2551 14.9605 17.3374 14.7533 17.3374Z" fill="black"/>
</g>
<defs>
<clipPath id="clip0_425_311">
<rect width="50" height="50" fill="white"/>
</clipPath>
</defs>
</svg>
