<svg width="50" height="50" viewBox="0 0 50 50" fill="none" xmlns="http://www.w3.org/2000/svg">
<path d="M48.4375 6.25H12.5C11.6383 6.25 10.9375 6.95078 10.9375 7.8125V30.1461C9.99219 30.3875 9.02969 30.7703 8.11484 31.3547C8.01953 31.4164 7.91406 31.4539 7.8125 31.5023V31.25C7.8125 30.8188 7.4625 30.4688 7.03125 30.4688H0.78125C0.35 30.4688 0 30.8188 0 31.25V42.1875C0 42.6188 0.35 42.9688 0.78125 42.9688H7.03125C7.4625 42.9688 7.8125 42.6188 7.8125 42.1875V41.0969H8.6875C10.2617 41.0969 11.8445 41.2547 13.3914 41.5656L20.7602 43.0586C22.0297 43.3133 23.3125 43.4414 24.5898 43.4414C25.0828 43.4414 25.575 43.4227 26.0656 43.3836L42.6273 42.1492C43.3039 42.1 43.9 41.6859 44.1828 41.0695C44.4672 40.4516 44.3922 39.7273 43.9883 39.1813C43.9578 39.1406 43.9188 39.1031 43.8867 39.0625H48.4375C49.2992 39.0625 50 38.3617 50 37.5V7.8125C50 6.95078 49.2992 6.25 48.4375 6.25ZM27.3438 7.8125H33.5938V16.0336L30.7594 14.8992C30.5727 14.825 30.3656 14.825 30.1789 14.8992L27.3438 16.0336V7.8125ZM6.25 41.4062H1.5625V32.0312H6.25V41.4062ZM48.4375 37.5H41.557C40.9758 37.2992 40.3828 37.1906 39.8438 37.1906H35.9375C35.5062 37.1906 35.1562 37.5406 35.1562 37.9719C35.1562 38.4031 35.5062 38.7531 35.9375 38.7531H39.8438C40.2687 38.7531 40.7711 38.8664 41.2484 39.057V39.0625H41.2641C41.3289 39.0883 41.3945 39.1109 41.4578 39.1398C42.0117 39.4 42.4633 39.743 42.7313 40.1078C42.825 40.2352 42.7922 40.3563 42.7641 40.4172C42.7367 40.4773 42.6672 40.5797 42.5133 40.5906L25.9477 41.825C24.3289 41.9516 22.6867 41.8508 21.0695 41.5258L13.7008 40.0328C12.0516 39.7016 10.3641 39.5328 8.6875 39.5328H7.8125V33.1727C8.21641 33.0625 8.60625 32.8969 8.96016 32.668C11.4688 31.0648 14.4766 31.257 16.0398 31.5133C16.6672 31.6219 17.3141 31.6094 17.957 31.4789C18.1852 31.4336 18.4031 31.3703 18.6234 31.2969L22.932 29.85C23.7102 29.5852 24.5773 29.6453 25.3141 30.0203L25.4969 30.1117C25.7633 30.2469 25.8687 30.4586 25.9109 30.6125C25.9711 30.8336 25.9367 31.0758 25.8086 31.2758C25.7336 31.4 25.6156 31.4961 25.4539 31.5625L21.2352 33.343C21.2305 33.3453 21.225 33.3437 21.2195 33.3461L20.993 33.4445C20.4062 33.6914 20.0297 34.2633 20.0328 34.9C20.0359 35.5383 20.4188 36.1063 21.0125 36.3492L24.2531 37.6531C26.0484 38.3805 28.1398 38.7492 30.4688 38.7492H32.8125C33.2438 38.7492 33.5938 38.3992 33.5938 37.968C33.5938 37.5367 33.2438 37.1867 32.8125 37.1867H30.4688C28.3719 37.1867 26.4258 36.8469 24.8383 36.2047L21.6078 34.8805L21.8414 34.7789L21.8422 34.7812L26.057 33.0023C26.5203 32.8094 26.8969 32.4922 27.1344 32.0992C27.4914 31.5406 27.5945 30.8477 27.418 30.1992C27.2414 29.5508 26.8109 29.025 26.2008 28.7148L26.018 28.6227C24.9109 28.0602 23.6023 27.968 22.4305 28.368L18.1273 29.8125C17.9711 29.8648 17.8148 29.9109 17.6484 29.9437C17.1922 30.0367 16.7398 30.0453 16.2977 29.9695C15.3734 29.818 14.0086 29.6906 12.4992 29.8602V7.8125H25.7805V17.1875C25.7805 17.4469 25.9094 17.6891 26.1234 17.8344C26.3383 17.9805 26.6102 18.0086 26.8516 17.9133L30.4688 16.4664L34.0844 17.9133C34.1789 17.9508 34.2773 17.9688 34.375 17.9688C34.5289 17.9688 34.682 17.9234 34.8133 17.8344C35.0273 17.6891 35.1562 17.4469 35.1562 17.1875V7.8125H48.4375V37.5Z" fill="black"/>
</svg>
