<svg width="50" height="50" viewBox="0 0 50 50" stroke-width="1" fill="none" xmlns="http://www.w3.org/2000/svg">
<g clip-path="url(#clip0_425_305)">
<path d="M19.8789 33.6929L26.7841 12.9768C27.0399 12.2093 26.6251 11.3797 25.8577 11.1239C25.0903 10.8681 24.2606 11.2829 24.0047 12.0503L17.0995 32.7665C16.8437 33.5339 17.2584 34.3635 18.0259 34.6194C18.1795 34.6706 18.3358 34.6949 18.4893 34.6949C19.1026 34.695 19.6742 34.3068 19.8789 33.6929Z" fill="#323232"/>
<path d="M30.228 27.2661C32.6512 27.2661 34.6226 25.2947 34.6226 22.8716C34.6226 20.4484 32.6512 18.4771 30.228 18.4771C27.8049 18.4771 25.8335 20.4484 25.8335 22.8716C25.8335 25.2947 27.8049 27.2661 30.228 27.2661ZM30.228 21.4067C31.0357 21.4067 31.6929 22.0639 31.6929 22.8716C31.6929 23.6793 31.0357 24.3364 30.228 24.3364C29.4203 24.3364 28.7632 23.6793 28.7632 22.8716C28.7632 22.0639 29.4203 21.4067 30.228 21.4067Z" fill="#323232"/>
<path d="M13.6553 18.4771C11.2321 18.4771 9.26074 20.4484 9.26074 22.8716C9.26074 25.2947 11.2321 27.2661 13.6553 27.2661C16.0784 27.2661 18.0498 25.2947 18.0498 22.8716C18.0498 20.4484 16.0785 18.4771 13.6553 18.4771ZM13.6553 24.3364C12.8476 24.3364 12.1904 23.6793 12.1904 22.8716C12.1904 22.0639 12.8476 21.4067 13.6553 21.4067C14.463 21.4067 15.1201 22.0639 15.1201 22.8716C15.1201 23.6793 14.4631 24.3364 13.6553 24.3364Z" fill="#323232"/>
<path d="M49.7075 18.1645L44.5994 11.3537L44.7987 9.95886C44.8638 9.50242 44.7104 9.04187 44.3843 8.71589L41.2769 5.60847L44.3843 2.50105C44.9563 1.92908 44.9563 1.00154 44.3843 0.429468C43.8123 -0.142505 42.8847 -0.142505 42.3127 0.429468L39.2053 3.53689L36.0979 0.429468C35.7719 0.103394 35.3114 -0.0495361 34.855 0.0151123L20.3537 2.08669C20.0399 2.13152 19.7492 2.27693 19.5251 2.50105L1.57117 20.455C-0.523071 22.5491 -0.523071 25.9567 1.57117 28.0509L16.7629 43.2426C17.0736 43.5534 17.4138 43.817 17.7739 44.0354V44.6294C17.7739 47.591 20.1834 50.0005 23.145 50.0005H44.6294C47.591 50.0005 50.0005 47.591 50.0005 44.6294V19.0434C50.0005 18.7265 49.8976 18.418 49.7075 18.1645ZM3.64275 25.9793C2.6908 25.0273 2.6908 23.4785 3.64275 22.5265L21.2513 4.91794L34.5441 3.01902L37.1337 5.60857L35.0621 7.68015L34.0262 6.64431C33.4543 6.07234 32.5267 6.07234 31.9547 6.64431C31.3826 7.21628 31.3826 8.14382 31.9547 8.71589L36.0979 12.8592C36.384 13.1452 36.7589 13.2883 37.1337 13.2883C37.5085 13.2883 37.8835 13.1452 38.1694 12.8592C38.7415 12.2872 38.7415 11.3596 38.1694 10.7876L37.1336 9.75173L39.2051 7.68015L41.7947 10.2697L39.8957 23.5625L22.2872 41.1711C21.826 41.6322 21.213 41.8861 20.5608 41.8861C19.9087 41.8861 19.2956 41.6321 18.8344 41.1711L3.64275 25.9793ZM47.0708 44.6294C47.0708 45.9756 45.9756 47.0708 44.6294 47.0708H23.145C21.8594 47.0708 20.8036 46.0719 20.7109 44.8096C22.0358 44.7729 23.3498 44.2516 24.3587 43.2426L42.3126 25.2887C42.5367 25.0646 42.6821 24.7739 42.7269 24.4601L44.0134 15.4552L47.0708 19.5317V44.6294Z" fill="#323232"/>
</g>
<defs>
<clipPath id="clip0_425_305">
<rect width="50" height="50" fill="white"/>
</clipPath>
</defs>
</svg>
